# xmcd
#
# Track frame offsets:
#	150
#	18487
#	30350
#	56875
#	74175
#	96800
#	118075
#	135437
#	153350
#	171725
#	190400
#
# Disc length: 2833 seconds
#
# Revision: 1
# Processed by: cddbd v1.5.1PL0 Copyright (c) Steve Scherf et al.
# Submitted via: audiograbber 1.83.01
#
DISCID=a00b0f0b
DTITLE=Western Union - Endless Summer
DYEAR=1900
DGENRE=Country
TTITLE0=Endless Summer
TTITLE1=Sweet Marie
TTITLE2=At The Tone
TTITLE3=Maybe She Will
TTITLE4=In The Evening
TTITLE5=Save A Little Lovin
TTITLE6=They Oughta Name A Drink After You
TTITLE7=I've Got You
TTITLE8=Rythm Of The Highway
TTITLE9=Ballad Of Willie Mc. Ghee
TTITLE10=Thank You USA
EXTD=
EXTT0=
EXTT1=
EXTT2=
EXTT3=
EXTT4=
EXTT5=
EXTT6=
EXTT7=
EXTT8=
EXTT9=
EXTT10=
PLAYORDER=
